<svg width="17" height="19" viewBox="0 0 17 19" fill="none" xmlns="http://www.w3.org/2000/svg">
<path d="M8.90194 18.005C8.96554 18.0704 9.04157 18.1223 9.12556 18.1577C9.20954 18.1932 9.29978 18.2114 9.39094 18.2114C9.4821 18.2114 9.57234 18.1932 9.65633 18.1577C9.74031 18.1223 9.81635 18.0704 9.87994 18.005C10.0103 17.8712 10.0833 17.6917 10.0833 17.5048C10.0833 17.3179 10.0103 17.1384 9.87994 17.0045L2.57044 9.50754L9.87994 2.00904C9.94574 1.94168 9.99763 1.86201 10.0326 1.77459C10.0676 1.68717 10.0851 1.59372 10.084 1.49956C10.0829 1.40539 10.0632 1.31238 10.0261 1.22581C9.98907 1.13924 9.93532 1.06083 9.86794 0.995041C9.80377 0.932327 9.72785 0.882882 9.64455 0.849538C9.56124 0.816194 9.47218 0.799605 9.38245 0.800719C9.29273 0.801834 9.20411 0.820631 9.12165 0.856034C9.0392 0.891437 8.96454 0.942751 8.90194 1.00704L1.12894 8.98404C0.992421 9.1241 0.916016 9.31195 0.916016 9.50754C0.916016 9.70313 0.992421 9.89098 1.12894 10.031L8.90194 18.005V18.005ZM14.9019 18.005C14.9655 18.0704 15.0416 18.1223 15.1256 18.1577C15.2095 18.1932 15.2998 18.2114 15.3909 18.2114C15.4821 18.2114 15.5723 18.1932 15.6563 18.1577C15.7403 18.1223 15.8163 18.0704 15.8799 18.005C16.0103 17.8712 16.0833 17.6917 16.0833 17.5048C16.0833 17.3179 16.0103 17.1384 15.8799 17.0045L8.57044 9.50754L15.8799 2.00904C15.9457 1.94168 15.9976 1.86201 16.0326 1.77459C16.0676 1.68717 16.0851 1.59372 16.084 1.49956C16.0829 1.40539 16.0632 1.31238 16.0261 1.22581C15.9891 1.13924 15.9353 1.06083 15.8679 0.995041C15.8038 0.932327 15.7279 0.882882 15.6445 0.849538C15.5612 0.816194 15.4722 0.799605 15.3825 0.800719C15.2927 0.801834 15.2041 0.820631 15.1217 0.856034C15.0392 0.891437 14.9645 0.942751 14.9019 1.00704L7.12894 8.98404C6.99242 9.1241 6.91602 9.31195 6.91602 9.50754C6.91602 9.70313 6.99242 9.89098 7.12894 10.031L14.9019 18.005V18.005Z" fill="#ECF1F0"/>
</svg>
