<svg width="8" height="14" viewBox="0 0 8 14" fill="none" xmlns="http://www.w3.org/2000/svg">
<path d="M0.188937 7.43614L6.97775 13.8336C7.09102 13.9404 7.24152 14 7.39801 14C7.55451 14 7.70501 13.9404 7.81828 13.8336L7.82559 13.8264C7.88069 13.7746 7.92457 13.7123 7.95455 13.6432C7.98454 13.5742 8 13.4998 8 13.4246C8 13.3494 7.98454 13.275 7.95455 13.206C7.92457 13.1369 7.88069 13.0746 7.82559 13.0228L1.43268 6.9988L7.82559 0.977208C7.88069 0.925434 7.92457 0.863114 7.95455 0.794039C7.98454 0.724964 8 0.650579 8 0.575408C8 0.500237 7.98454 0.425851 7.95455 0.356776C7.92457 0.287702 7.88069 0.225381 7.82559 0.173607L7.81828 0.166378C7.70501 0.0595788 7.55451 9.47537e-08 7.39802 9.28875e-08C7.24152 9.10213e-08 7.09102 0.0595788 6.97775 0.166378L0.188937 6.56386C0.129232 6.62012 0.0817008 6.68779 0.0492237 6.76276C0.0167466 6.83773 8.44468e-08 6.91844 8.34742e-08 7C8.25016e-08 7.08156 0.0167466 7.16227 0.0492237 7.23724C0.0817008 7.31221 0.129232 7.37988 0.188937 7.43614Z" fill="#ECF1F0"/>
</svg>
