<svg width="15" height="13" viewBox="0 0 15 13" fill="none" xmlns="http://www.w3.org/2000/svg">
<path d="M14.3368 5.98495C14.3912 5.93196 14.4345 5.8686 14.464 5.79861C14.4936 5.72862 14.5088 5.65342 14.5088 5.57745C14.5088 5.50149 14.4936 5.42629 14.464 5.3563C14.4345 5.28631 14.3912 5.22295 14.3368 5.16995C14.2252 5.0613 14.0757 5.0005 13.9199 5.0005C13.7642 5.0005 13.6146 5.0613 13.5031 5.16995L7.25555 11.2612L1.0068 5.16995C0.950665 5.11512 0.884278 5.07188 0.81143 5.04271C0.738581 5.01354 0.660699 4.999 0.582232 4.99993C0.503765 5.00086 0.426249 5.01723 0.354111 5.04812C0.281973 5.07901 0.216627 5.12381 0.161803 5.17995C0.109541 5.23343 0.0683374 5.29669 0.0405512 5.36612C0.012764 5.43554 -0.00106049 5.50976 -0.000131607 5.58453C0.000797272 5.6593 0.0164614 5.73315 0.0459642 5.80186C0.0754671 5.87057 0.118228 5.93279 0.171803 5.98495L6.8193 12.4625C6.93602 12.5762 7.09256 12.6399 7.25555 12.6399C7.41854 12.6399 7.57508 12.5762 7.6918 12.4625L14.3368 5.98495ZM14.3368 0.984953C14.3912 0.931958 14.4345 0.868596 14.464 0.798607C14.4936 0.728619 14.5088 0.653421 14.5088 0.577454C14.5088 0.501487 14.4936 0.426289 14.464 0.356299C14.4345 0.28631 14.3912 0.222949 14.3368 0.169953C14.2252 0.0612993 14.0757 0.000497818 13.9199 0.000497818C13.7642 0.000497818 13.6146 0.0612993 13.5031 0.169953L7.25555 6.2612L1.0068 0.169953C0.950665 0.115121 0.884278 0.0718842 0.81143 0.0427113C0.738581 0.0135374 0.660699 -0.000999451 0.582232 -7.05719e-05C0.503765 0.000857353 0.426249 0.0172338 0.354111 0.0481224C0.281973 0.0790119 0.216627 0.123807 0.161803 0.179953C0.109541 0.233433 0.0683374 0.296695 0.0405512 0.366116C0.012764 0.435537 -0.00106049 0.509756 -0.000131607 0.584526C0.000797272 0.659297 0.0164614 0.73315 0.0459642 0.801861C0.0754671 0.87057 0.118228 0.932788 0.171803 0.984953L6.8193 7.46245C6.93602 7.57622 7.09256 7.63989 7.25555 7.63989C7.41854 7.63989 7.57508 7.57622 7.6918 7.46245L14.3368 0.984953Z" fill="#ECF1F0"/>
</svg>
