<svg width="20" height="20" viewBox="0 0 20 20" fill="none" xmlns="http://www.w3.org/2000/svg">
<g clip-path="url(#clip0_970_2988)">
<path d="M4.28341 10.6231L14.4666 19.7623C14.6365 19.9149 14.8623 20 15.097 20C15.3318 20 15.5575 19.9149 15.7274 19.7623L15.7384 19.752C15.821 19.678 15.8869 19.589 15.9318 19.4903C15.9768 19.3916 16 19.2854 16 19.178C16 19.0706 15.9768 18.9643 15.9318 18.8657C15.8869 18.767 15.821 18.678 15.7384 18.604L6.14902 9.99828L15.7384 1.39601C15.821 1.32205 15.8869 1.23302 15.9318 1.13434C15.9768 1.03566 16 0.929398 16 0.822011C16 0.714623 15.9768 0.608358 15.9318 0.50968C15.8869 0.411002 15.821 0.321973 15.7384 0.24801L15.7274 0.237682C15.5575 0.0851122 15.3318 -2.53984e-07 15.097 -2.56783e-07C14.8623 -2.59583e-07 14.6365 0.0851122 14.4666 0.237682L4.28341 9.37695C4.19385 9.45732 4.12255 9.55399 4.07384 9.66108C4.02512 9.76818 4 9.88349 4 10C4 10.1165 4.02512 10.2318 4.07384 10.3389C4.12255 10.446 4.19385 10.5427 4.28341 10.6231Z" fill="#ECF1F0"/>
</g>
<defs>
<clipPath id="clip0_970_2988">
<rect width="20" height="20" fill="white" transform="translate(0 20) rotate(-90)"/>
</clipPath>
</defs>
</svg>
