<svg width="20" height="20" viewBox="0 0 20 20" fill="none" xmlns="http://www.w3.org/2000/svg">
<path d="M9.54742 6.72488L2.90992 13.6911C2.79912 13.8074 2.7373 13.9618 2.7373 14.1224C2.7373 14.283 2.79912 14.4374 2.90992 14.5536L2.91742 14.5611C2.97114 14.6177 3.0358 14.6627 3.10746 14.6935C3.17913 14.7242 3.25631 14.7401 3.3343 14.7401C3.41229 14.7401 3.48947 14.7242 3.56113 14.6935C3.6328 14.6627 3.69746 14.6177 3.75117 14.5611L10.0012 8.00113L16.2487 14.5611C16.3024 14.6177 16.367 14.6627 16.4387 14.6935C16.5104 14.7242 16.5876 14.7401 16.6655 14.7401C16.7435 14.7401 16.8207 14.7242 16.8924 14.6935C16.964 14.6627 17.0287 14.6177 17.0824 14.5611L17.0899 14.5536C17.2007 14.4374 17.2625 14.283 17.2625 14.1224C17.2625 13.9618 17.2007 13.8074 17.0899 13.6911L10.4524 6.72488C10.3941 6.66362 10.3238 6.61484 10.2461 6.58152C10.1683 6.54819 10.0845 6.53101 9.99992 6.53101C9.9153 6.53101 9.83156 6.54819 9.75378 6.58152C9.676 6.61484 9.6058 6.66362 9.54742 6.72488Z" fill="#ECF1F0"/>
</svg>
