<svg width="226" height="50" viewBox="0 0 226 50" fill="none" xmlns="http://www.w3.org/2000/svg">
<g clip-path="url(#clip0_943_2341)">
<path d="M1 15.2692H5.38012V19.1153H5.45697C5.91803 17.6538 8.9918 14.6538 13.4488 14.6538C17.1373 14.6538 19.5963 16.1923 21.21 19.2692C21.993 17.8756 23.1308 16.7144 24.5075 15.9037C25.8843 15.093 27.4509 14.6618 29.0482 14.6538C36.6557 14.6538 38.5 20.1153 38.5 25.6538V40.1153H33.8125V26.2692C33.8125 22.5 33.0441 19.0384 28.5102 19.0384C23.9764 19.0384 22.209 22.1153 22.209 26.5V40.1153H17.5215V27.1153C17.5215 22.423 16.8299 19.0384 12.2961 19.0384C8.91496 19.0384 5.84119 21.5769 5.84119 27.1923V40.1153H1V15.2692Z" fill="#ECF1F0"/>
<path d="M46.5686 29.4231C46.5686 33.8077 50.5645 36.6538 54.9446 36.6538C57.8647 36.6538 59.9395 35.1923 61.7838 32.9615L65.3186 35.6538C62.7059 39.0384 59.0942 40.7308 54.3299 40.7308C46.4918 40.7308 41.5737 35.0384 41.5737 27.6538C41.5737 20.2692 46.9528 14.5769 54.4067 14.5769C63.167 14.5769 66.4713 21.2692 66.4713 27.6538V29.3461L46.5686 29.4231ZM61.3996 25.6538C61.3227 21.5 59.0174 18.4231 54.253 18.4231C52.2924 18.4195 50.4046 19.1663 48.9761 20.5105C47.5475 21.8547 46.6862 23.6947 46.5686 25.6538H61.3996Z" fill="#ECF1F0"/>
<path d="M82.7622 19.3462H75.9999V30.577C75.9999 33.3462 75.9999 36.2693 79.5347 36.2693C80.71 36.3183 81.8772 36.0528 82.9159 35.5001V39.8077C81.575 40.3608 80.1397 40.6481 78.6894 40.6539C71.3892 40.6539 71.3124 36.1924 71.3124 32.1924V19.3462H65.8564V15.2693H71.3124V8.26929H75.9999V15.2693H82.7622V19.3462Z" fill="#ECF1F0"/>
<path d="M86.2969 18.3461C89.018 15.959 92.5148 14.6464 96.133 14.6538C103.433 14.6538 106.507 18.6538 106.507 22.9615V35.6538C106.507 37.1696 106.584 38.6844 106.737 40.1923H102.588C102.511 38.9615 102.434 37.6538 102.434 36.4231H102.357C100.283 39.6538 97.4393 40.8077 93.6739 40.8077C89.0633 40.8077 85.0674 38.1923 85.0674 33.3461C85.0674 26.9615 91.2149 24.7308 98.7457 24.7308H102.204V23.6538C102.204 21.1154 100.359 18.4231 96.2866 18.4231C92.675 18.4231 90.9844 19.9615 89.217 21.2692L86.2969 18.3461ZM99.6678 28.1923C95.2108 28.1923 89.7549 28.9615 89.7549 32.9615C89.7549 35.8077 91.8297 36.9615 95.0571 36.9615C100.283 36.9615 102.127 33.1154 102.127 29.7308V28.1923H99.6678Z" fill="#ECF1F0"/>
<path d="M124.719 21.5C124.125 20.7215 123.357 20.0933 122.476 19.6658C121.595 19.2383 120.626 19.0234 119.648 19.0384C117.419 19.0384 115.498 20.0384 115.498 21.8077C115.498 24.8077 119.725 25.1923 121.799 25.6538C125.872 26.6538 129.023 28.1923 129.023 32.8846C129.023 38.5 123.874 40.7307 118.956 40.7307C114.883 40.7307 111.81 39.6538 109.351 36.3461L112.885 33.423C114.422 34.9615 116.19 36.3461 118.879 36.3461C121.261 36.3461 123.874 35.3461 123.874 33.1923C123.874 30.3461 119.955 29.8077 117.88 29.3461C113.884 28.3461 110.273 27.0384 110.273 22.2692C110.273 17.1153 115.037 14.6538 119.725 14.6538C123.029 14.6538 126.41 15.8077 128.177 18.7307L124.719 21.5Z" fill="#ECF1F0"/>
<path d="M132.096 15.2692H136.784V18.8077H136.861C137.879 17.4985 139.185 16.4424 140.678 15.7218C142.171 15.0013 143.81 14.6358 145.467 14.6538C153.152 14.6538 158.07 20.3461 158.07 27.7308C158.07 35.1154 153.075 40.8077 145.467 40.8077C141.932 40.8077 138.474 39.1923 136.861 36.5769H136.784V49.5H132.096V15.2692ZM136.861 27.6538C136.861 32.6538 140.011 36.2692 145.006 36.2692C150.001 36.2692 153.152 32.7308 153.152 27.6538C153.152 22.5769 150.001 19.0385 144.929 19.0385C139.857 19.0385 136.861 22.6538 136.861 27.6538Z" fill="#ECF1F0"/>
<path d="M161.835 0.5H166.522V40.1154H161.835V0.5Z" fill="#ECF1F0"/>
<path d="M181.968 14.6538C185.447 14.6742 188.775 16.0743 191.224 18.5471C193.672 21.02 195.042 24.364 195.032 27.8459C195.021 31.3278 193.633 34.6637 191.169 37.1222C188.706 39.5807 185.37 40.9613 181.891 40.9613C178.413 40.9613 175.076 39.5807 172.613 37.1222C170.15 34.6637 168.761 31.3278 168.751 27.8459C168.741 24.364 170.11 21.02 172.559 18.5471C175.008 16.0743 178.336 14.6742 181.814 14.6538H181.968ZM181.968 36.3461C186.963 36.3461 190.114 32.7307 190.114 27.7307C190.114 22.7307 186.963 19.1153 181.968 19.1153C176.973 19.1153 173.823 22.7307 173.823 27.7307C173.823 32.7307 176.973 36.3461 181.968 36.3461Z" fill="#ECF1F0"/>
<path d="M199.796 2.88464C200.48 2.88464 201.148 3.08766 201.717 3.46802C202.286 3.84838 202.729 4.38899 202.991 5.02151C203.252 5.65402 203.321 6.35002 203.187 7.02149C203.054 7.69297 202.725 8.30975 202.241 8.79386C201.757 9.27796 201.141 9.60764 200.471 9.74121C199.8 9.87477 199.104 9.80622 198.473 9.54423C197.841 9.28223 197.301 8.83856 196.921 8.26931C196.541 7.70006 196.338 7.03081 196.338 6.34618C196.359 5.43489 196.731 4.56686 197.374 3.9223C198.018 3.27774 198.886 2.90614 199.796 2.88464ZM197.414 15.2693H202.101V40.1154H197.414V15.2693Z" fill="#ECF1F0"/>
<path d="M220.774 19.3462H214.012V30.577C214.012 33.3462 214.012 36.2693 217.547 36.2693C218.722 36.3183 219.889 36.0528 220.928 35.5001V39.8077C219.587 40.3608 218.152 40.6481 216.702 40.6539C209.401 40.6539 209.325 36.1924 209.325 32.1924V19.3462H203.869V15.2693H209.325V8.26929H214.012V15.2693H220.774V19.3462Z" fill="#ECF1F0"/>
<path d="M222.312 0.807739C223.041 0.807739 223.754 1.02429 224.361 1.43001C224.967 1.83572 225.44 2.41238 225.719 3.08706C225.999 3.76174 226.072 4.50414 225.929 5.22038C225.787 5.93662 225.436 6.59452 224.92 7.1109C224.404 7.62728 223.747 7.97894 223.031 8.12141C222.316 8.26388 221.574 8.19076 220.9 7.91129C220.226 7.63183 219.65 7.15858 219.245 6.55138C218.839 5.94419 218.623 5.23032 218.623 4.50005C218.637 3.52512 219.03 2.59403 219.719 1.90458C220.407 1.21513 221.338 0.821655 222.312 0.807739ZM222.312 7.65389C222.726 7.658 223.138 7.57924 223.522 7.4222C223.906 7.26516 224.255 7.033 224.549 6.73932C224.842 6.44563 225.074 6.09632 225.231 5.71182C225.388 5.32732 225.466 4.91536 225.462 4.50005C225.462 3.66359 225.13 2.8614 224.539 2.26994C223.949 1.67848 223.147 1.3462 222.312 1.3462C221.476 1.3462 220.675 1.67848 220.084 2.26994C219.493 2.8614 219.161 3.66359 219.161 4.50005C219.165 5.33525 219.498 6.1351 220.088 6.72568C220.678 7.31627 221.477 7.64985 222.312 7.65389ZM221.543 6.57697H221.005V2.3462H222.619C223.541 2.3462 223.925 2.73082 223.925 3.50005C223.924 3.80057 223.815 4.09064 223.617 4.3168C223.42 4.54297 223.147 4.69001 222.849 4.73082L224.156 6.57697H223.541L222.312 4.73082H221.543V6.57697ZM221.543 4.26928H222.235C222.849 4.26928 223.464 4.26928 223.464 3.50005C223.464 2.96159 223.003 2.80774 222.542 2.80774H221.543V4.26928Z" fill="#ECF1F0"/>
</g>
<defs>
<clipPath id="clip0_943_2341">
<rect width="225" height="49" fill="white" transform="translate(1 0.5)"/>
</clipPath>
</defs>
</svg>
