<svg width="20" height="20" viewBox="0 0 20 20" fill="none" xmlns="http://www.w3.org/2000/svg">
<path fill-rule="evenodd" clip-rule="evenodd" d="M0 10C0 4.477 4.477 0 10 0C15.523 0 20 4.477 20 10C20 15.523 15.523 20 10 20C4.477 20 0 15.523 0 10ZM8 6C7.34 6 6.372 6.19 5.54 6.788C4.659 7.424 4 8.474 4 10C4 11.526 4.658 12.576 5.54 13.211C6.26118 13.717 7.11902 13.9922 8 14C8.26522 14 8.51957 13.8946 8.70711 13.7071C8.89464 13.5196 9 13.2652 9 13C9 12.7348 8.89464 12.4804 8.70711 12.2929C8.51957 12.1054 8.26522 12 8 12C7.66 12 7.128 11.89 6.71 11.588C6.341 11.325 6 10.874 6 10C6 9.126 6.342 8.676 6.71 8.412C7.127 8.11 7.66 8 8 8C8.26522 8 8.51957 7.89464 8.70711 7.70711C8.89464 7.51957 9 7.26522 9 7C9 6.73478 8.89464 6.48043 8.70711 6.29289C8.51957 6.10536 8.26522 6 8 6ZM12 6C11.7348 6 11.4804 6.10536 11.2929 6.29289C11.1054 6.48043 11 6.73478 11 7C11 7.26522 11.1054 7.51957 11.2929 7.70711C11.4804 7.89464 11.7348 8 12 8C12.34 8 12.872 8.11 13.29 8.412C13.658 8.676 14 9.126 14 10C14 10.874 13.658 11.324 13.29 11.588C12.872 11.89 12.34 12 12 12C11.8687 12 11.7386 12.0259 11.6173 12.0761C11.496 12.1264 11.3858 12.2 11.2929 12.2929C11.2 12.3858 11.1264 12.496 11.0761 12.6173C11.0259 12.7386 11 12.8687 11 13C11 13.1313 11.0259 13.2614 11.0761 13.3827C11.1264 13.504 11.2 13.6142 11.2929 13.7071C11.3858 13.8 11.496 13.8736 11.6173 13.9239C11.7386 13.9741 11.8687 14 12 14C12.66 14 13.628 13.81 14.46 13.211C15.341 12.576 16 11.526 16 10C16 8.474 15.342 7.424 14.46 6.788C13.7387 6.28231 12.8809 6.00752 12 6ZM8 9C7.73478 9 7.48043 9.10536 7.29289 9.29289C7.10536 9.48043 7 9.73478 7 10C7 10.2652 7.10536 10.5196 7.29289 10.7071C7.48043 10.8946 7.73478 11 8 11H12C12.2652 11 12.5196 10.8946 12.7071 10.7071C12.8946 10.5196 13 10.2652 13 10C13 9.73478 12.8946 9.48043 12.7071 9.29289C12.5196 9.10536 12.2652 9 12 9H8Z" fill="#ECF1F0"/>
</svg>
