<svg width="20" height="20" viewBox="0 0 20 20" fill="none" xmlns="http://www.w3.org/2000/svg">
<g clip-path="url(#clip0_970_2985)">
<path d="M15.7166 9.37695L5.53338 0.237681C5.36346 0.0851112 5.13772 -4.74805e-07 4.90298 -4.85066e-07C4.66823 -4.95327e-07 4.44249 0.0851111 4.27258 0.237681L4.26162 0.248008C4.17896 0.321971 4.11314 0.411 4.06817 0.509678C4.02319 0.608356 4 0.714621 4 0.822009C4 0.929396 4.02319 1.03566 4.06817 1.13434C4.11314 1.23302 4.17896 1.32205 4.26162 1.39601L13.851 10.0017L4.26162 18.604C4.17896 18.678 4.11314 18.767 4.06817 18.8657C4.02319 18.9643 4 19.0706 4 19.178C4 19.2854 4.02319 19.3916 4.06817 19.4903C4.11314 19.589 4.17896 19.678 4.26162 19.752L4.27258 19.7623C4.44249 19.9149 4.66823 20 4.90298 20C5.13772 20 5.36346 19.9149 5.53338 19.7623L15.7166 10.6231C15.8062 10.5427 15.8774 10.446 15.9262 10.3389C15.9749 10.2318 16 10.1165 16 10C16 9.88348 15.9749 9.76818 15.9262 9.66108C15.8774 9.55398 15.8062 9.45732 15.7166 9.37695Z" fill="#ECF1F0"/>
</g>
<defs>
<clipPath id="clip0_970_2985">
<rect width="20" height="20" fill="white" transform="translate(20) rotate(90)"/>
</clipPath>
</defs>
</svg>
