<svg width="17" height="19" viewBox="0 0 17 19" fill="none" xmlns="http://www.w3.org/2000/svg">
<path d="M8.09806 1.00717C8.03446 0.941851 7.95843 0.889938 7.87444 0.854491C7.79045 0.819044 7.70022 0.800781 7.60906 0.800781C7.5179 0.800781 7.42766 0.819044 7.34367 0.854491C7.25969 0.889938 7.18365 0.941851 7.12006 1.00717C6.98967 1.14104 6.91671 1.32054 6.91671 1.50742C6.91671 1.69429 6.98967 1.87379 7.12006 2.00767L14.4296 9.50467L7.12006 17.0032C7.05426 17.0705 7.00237 17.1502 6.96737 17.2376C6.93236 17.325 6.91491 17.4185 6.91603 17.5127C6.91714 17.6068 6.93679 17.6998 6.97386 17.7864C7.01093 17.873 7.06468 17.9514 7.13206 18.0172C7.19623 18.0799 7.27215 18.1293 7.35545 18.1627C7.43876 18.196 7.52782 18.2126 7.61755 18.2115C7.70727 18.2104 7.79589 18.1916 7.87835 18.1562C7.9608 18.1208 8.03546 18.0695 8.09806 18.0052L15.8711 10.0282C16.0076 9.8881 16.084 9.70026 16.084 9.50467C16.084 9.30908 16.0076 9.12123 15.8711 8.98117L8.09806 1.00717ZM2.09806 1.00717C2.03446 0.941851 1.95843 0.889938 1.87444 0.854491C1.79045 0.819044 1.70022 0.800781 1.60906 0.800781C1.5179 0.800781 1.42766 0.819044 1.34367 0.854491C1.25969 0.889938 1.18365 0.941851 1.12006 1.00717C0.989673 1.14104 0.916711 1.32054 0.91671 1.50742C0.916711 1.69429 0.989673 1.87379 1.12006 2.00767L8.42956 9.50467L1.12006 17.0032C1.05426 17.0705 1.00237 17.1502 0.967366 17.2376C0.932359 17.325 0.914914 17.4185 0.916028 17.5127C0.917142 17.6068 0.936794 17.6998 0.973861 17.7864C1.01093 17.873 1.06468 17.9514 1.13206 18.0172C1.19623 18.0799 1.27215 18.1293 1.35545 18.1627C1.43876 18.196 1.52782 18.2126 1.61755 18.2115C1.70727 18.2104 1.79589 18.1916 1.87835 18.1562C1.9608 18.1208 2.03546 18.0695 2.09806 18.0052L9.87106 10.0282C10.0076 9.8881 10.084 9.70026 10.084 9.50467C10.084 9.30908 10.0076 9.12123 9.87106 8.98117L2.09806 1.00717Z" fill="#ECF1F0"/>
</svg>
