<svg width="18" height="19" viewBox="0 0 18 19" fill="none" xmlns="http://www.w3.org/2000/svg">
<path d="M14.2945 13.3333C13.9203 13.3347 13.5503 13.4117 13.2066 13.5597C12.8629 13.7077 12.5527 13.9236 12.2945 14.1944L5.52226 10.8055C5.68885 10.3004 5.68885 9.75511 5.52226 9.24997L12.3056 5.79997C12.7915 6.31199 13.4504 6.62506 14.1542 6.67834C14.858 6.73161 15.5566 6.52129 16.114 6.08825C16.6714 5.6552 17.0479 5.03037 17.1703 4.33521C17.2926 3.64004 17.1522 2.9242 16.7762 2.32682C16.4002 1.72945 15.8155 1.29321 15.1358 1.1029C14.4561 0.912587 13.7299 0.981803 13.0984 1.29709C12.4668 1.61238 11.9751 2.15121 11.7187 2.80887C11.4623 3.46652 11.4596 4.196 11.7111 4.85553L4.99448 8.2722C4.63173 7.82856 4.14065 7.50797 3.58855 7.35438C3.03644 7.20079 2.45035 7.22171 1.91061 7.41429C1.37087 7.60686 0.903901 7.96166 0.573713 8.43004C0.243526 8.89842 0.0662842 9.45746 0.0662842 10.0305C0.0662842 10.6036 0.243526 11.1626 0.573713 11.631C0.903901 12.0994 1.37087 12.4542 1.91061 12.6468C2.45035 12.8393 3.03644 12.8603 3.58855 12.7067C4.14065 12.5531 4.63173 12.2325 4.99448 11.7889L11.6945 15.1611C11.5813 15.4651 11.523 15.7867 11.5223 16.1111C11.5223 16.6605 11.6852 17.1975 11.9904 17.6543C12.2956 18.1111 12.7295 18.4672 13.237 18.6774C13.7446 18.8877 14.3031 18.9427 14.842 18.8355C15.3808 18.7283 15.8757 18.4637 16.2642 18.0753C16.6527 17.6868 16.9173 17.1918 17.0244 16.653C17.1316 16.1142 17.0766 15.5556 16.8664 15.0481C16.6561 14.5405 16.3001 14.1067 15.8433 13.8014C15.3865 13.4962 14.8494 13.3333 14.3 13.3333H14.2945Z" fill="#ECF1F0"/>
</svg>
