<svg width="16" height="14" viewBox="0 0 16 14" fill="none" xmlns="http://www.w3.org/2000/svg">
<path d="M0.917593 7.34C0.863164 7.39299 0.819902 7.45635 0.790363 7.52634C0.760824 7.59633 0.745605 7.67153 0.745605 7.7475C0.745605 7.82346 0.760824 7.89866 0.790363 7.96865C0.819902 8.03864 0.863164 8.102 0.917593 8.155C1.02916 8.26365 1.17874 8.32445 1.33447 8.32445C1.4902 8.32445 1.63978 8.26365 1.75134 8.155L7.99884 2.06375L14.2476 8.155C14.3037 8.20983 14.3701 8.25307 14.443 8.28224C14.5158 8.31141 14.5937 8.32595 14.6722 8.32502C14.7506 8.32409 14.8281 8.30772 14.9003 8.27683C14.9724 8.24594 15.0378 8.20114 15.0926 8.145C15.1449 8.09152 15.1861 8.02826 15.2138 7.95884C15.2416 7.88941 15.2555 7.8152 15.2545 7.74043C15.2536 7.66565 15.2379 7.5918 15.2084 7.52309C15.1789 7.45438 15.1362 7.39216 15.0826 7.34L8.43509 0.862498C8.31837 0.74873 8.16183 0.685059 7.99884 0.685059C7.83585 0.685059 7.67931 0.74873 7.56259 0.862498L0.917593 7.34ZM0.917593 12.34C0.863163 12.393 0.819902 12.4564 0.790363 12.5263C0.760824 12.5963 0.745605 12.6715 0.745605 12.7475C0.745605 12.8235 0.760824 12.8987 0.790363 12.9687C0.819902 13.0386 0.863163 13.102 0.917593 13.155C1.02916 13.2637 1.17874 13.3245 1.33447 13.3245C1.4902 13.3245 1.63978 13.2637 1.75134 13.155L7.99884 7.06375L14.2476 13.155C14.3037 13.2098 14.3701 13.2531 14.443 13.2822C14.5158 13.3114 14.5937 13.326 14.6722 13.325C14.7506 13.3241 14.8281 13.3077 14.9003 13.2768C14.9724 13.2459 15.0378 13.2011 15.0926 13.145C15.1449 13.0915 15.1861 13.0283 15.2138 12.9588C15.2416 12.8894 15.2555 12.8152 15.2545 12.7404C15.2536 12.6657 15.2379 12.5918 15.2084 12.5231C15.1789 12.4544 15.1362 12.3922 15.0826 12.34L8.43509 5.8625C8.31837 5.74873 8.16183 5.68506 7.99884 5.68506C7.83585 5.68506 7.67931 5.74873 7.56259 5.8625L0.917593 12.34Z" fill="#ECF1F0"/>
</svg>
